# xmcd
#
# Track frame offsets: 
#        182
#        16010
#        33700
#        46287
#        49652
#        57907
#        73492
#        86552
#        93457
#        106265
#        132897
#        150225
#        162497
#        174782
#        179725
#
# Disc length: 2764 seconds
#
# Revision: 2
# Processed by: cddbd v1.5.1PL2 Copyright (c) Steve Scherf et al.
# Submitted via: ExactAudioCopy v0.95b4
#
DISCID=c20aca0f
DTITLE=Nitty Gritty Dirt Band - Symphonion Dream
DYEAR=1975
DGENRE=Bluegrass
TTITLE0=Winter White followed by Raleigh-Durham Reel
TTITLE1=Battle Of New Orleans
TTITLE2=Bayou Jubilee
TTITLE3=Sally Was A Goodun
TTITLE4=Hey Good Lookin'
TTITLE5=Classical Banjo I, Malaguena , Classical Banjo II
TTITLE6=Daddy Was  A Sailor
TTITLE7=Sleeping On The Beach
TTITLE8=Santa Monica Pier
TTITLE9=Ripplin' Waters
TTITLE10=(All I Have To Do Is) Dream
TTITLE11=Mother Of Love
TTITLE12=The Moon Just Turned Blue
TTITLE13=Gotta Travel On
TTITLE14=Joshua Come Home, Solstice, Symphonion Montage
EXTD=
EXTT0=
EXTT1=
EXTT2=
EXTT3=
EXTT4=
EXTT5=
EXTT6=
EXTT7=
EXTT8=
EXTT9=
EXTT10=
EXTT11=
EXTT12=
EXTT13=
EXTT14=
PLAYORDER=
